<?xml version="1.0" encoding="UTF-8" standalone="no"?>
<!-- Created with Inkscape (http://www.inkscape.org/) -->

<svg
   xmlns:osb="http://www.openswatchbook.org/uri/2009/osb"
   xmlns:dc="http://purl.org/dc/elements/1.1/"
   xmlns:cc="http://creativecommons.org/ns#"
   xmlns:rdf="http://www.w3.org/1999/02/22-rdf-syntax-ns#"
   xmlns:svg="http://www.w3.org/2000/svg"
   xmlns="http://www.w3.org/2000/svg"
   xmlns:sodipodi="http://sodipodi.sourceforge.net/DTD/sodipodi-0.dtd"
   xmlns:inkscape="http://www.inkscape.org/namespaces/inkscape"
   width="32"
   height="32"
   id="svg2"
   version="1.1"
   inkscape:version="0.48.5 r10040"
   sodipodi:docname="favicon.svg">
  <defs
     id="defs4">
    <linearGradient
       id="linearGradient8319"
       osb:paint="solid">
      <stop
         style="stop-color:#e5eaef;stop-opacity:1;"
         offset="0"
         id="stop8321" />
    </linearGradient>
    <inkscape:perspective
       sodipodi:type="inkscape:persp3d"
       inkscape:vp_x="117.05459 : 688.3616 : 1"
       inkscape:vp_y="533.96002 : 306.41039 : 0"
       inkscape:vp_z="530.70148 : 35.431628 : 1"
       inkscape:persp3d-origin="230.22481 : 308.15416 : 1"
       id="perspective3285" />
  </defs>
  <sodipodi:namedview
     id="base"
     pagecolor="#ffffff"
     bordercolor="#666666"
     borderopacity="1.0"
     inkscape:pageopacity="0.0"
     inkscape:pageshadow="2"
     inkscape:zoom="4"
     inkscape:cx="-35.440184"
     inkscape:cy="55.075916"
     inkscape:document-units="px"
     inkscape:current-layer="layer1"
     showgrid="false"
     inkscape:window-width="1584"
     inkscape:window-height="821"
     inkscape:window-x="0"
     inkscape:window-y="96"
     inkscape:window-maximized="0"
     showguides="true"
     inkscape:guide-bbox="true"
     showborder="true"
     borderlayer="false" />
  <metadata
     id="metadata7">
    <rdf:RDF>
      <cc:Work
         rdf:about="">
        <dc:format>image/svg+xml</dc:format>
        <dc:type
           rdf:resource="http://purl.org/dc/dcmitype/StillImage" />
        <dc:title></dc:title>
      </cc:Work>
    </rdf:RDF>
  </metadata>
  <g
     inkscape:label="Layer 1"
     inkscape:groupmode="layer"
     id="layer1"
     style="display:inline"
     transform="translate(0,-1020.3622)">
    <rect
       style="opacity:0.21000001;fill:#ffffff;fill-opacity:1;stroke:none"
       id="rect4782"
       width="23.25"
       height="19.75"
       x="-37"
       y="-34.25"
       transform="translate(0,1020.3622)" />
    <g
       id="g5554">
      <g
         transform="matrix(0.18021739,0,0,0.18021739,69.34731,1026.3665)"
         id="g7179-99-8-9-1-1-5"
         style="fill:#03b5f1;fill-opacity:1;display:inline">
        <path
           style="fill:#03b5f1;fill-opacity:1;stroke:none;display:inline"
           d="m -332.07701,-26.725871 c 15.7354,0 28.5,21.6628303 28.5,48.40229 0,0.68658 -0.0422,1.37006 -0.0625,2.05018 l 0.0625,0 0,61.95137 0,49.962141 c -0.44662,0.0358 -0.89193,0.0893 -1.34375,0.0893 -15.56922,0 -28.1875,-21.70748 -28.1875,-48.446931 0,-0.53728 0.0202,-1.0715 0.0312,-1.60449 l -0.0312,0 0,-61.68395 0,-0.26742 0,-50.4079 c 0.33957,-0.0203 0.68874,-0.0445 1.03125,-0.0445 z"
           id="path6625-4-4-8-01-1-4-2-6"
           inkscape:connector-curvature="0" />
        <path
           style="fill:#03b5f1;fill-opacity:1;stroke:none;display:inline"
           d="m -279.59609,9.2452893 c -5.05123,0 -9.7767,1.2966297 -13.9103,3.5708497 l 0,50.73794 c 4.1336,2.27422 8.85907,3.57084 13.9103,3.57084 15.98757,0 28.96646,-12.95225 28.96646,-28.93981 0,-15.98757 -12.97889,-28.9398197 -28.96646,-28.9398197 z"
           id="path6625-9-2-5-5-0-7-2-9-0-29"
           inkscape:connector-curvature="0" />
        <path
           inkscape:connector-curvature="0"
           style="fill:#03b5f1;fill-opacity:1;stroke:none;display:inline"
           d="m -277.19389,71.864719 c -5.92354,0 -11.46506,1.52054 -16.3125,4.1875 l 0,59.500031 c 4.84744,2.6669 10.38896,4.1875 16.3125,4.1875 18.7485,0 33.96875,-15.189 33.96875,-33.93753 0,-18.748501 -15.22025,-33.937501 -33.96875,-33.937501 z"
           id="path6625-9-2-9-7-4-2-9-7-2-0-1" />
      </g>
      <rect
         ry="9.75"
         y="1020.6122"
         x="0.25"
         height="32"
         width="32"
         id="rect5552"
         style="opacity:0.21000001;fill:#ffffff;fill-opacity:0;stroke:#03b5f1;stroke-opacity:1" />
    </g>
  </g>
</svg>
